<svg xmlns="http://www.w3.org/2000/svg" width="552" height="166" viewBox="0 0 552 166">
  <g id="Group_1" data-name="Group 1" transform="translate(-212 -337)">
    <path id="Path_3" data-name="Path 3" d="M0,149V16a16,16,0,1,1,32,0V149a16,16,0,0,1-32,0Z" transform="translate(559 338)" fill="#00a9ce"/>
    <path id="Path_4" data-name="Path 4" d="M54,149V32H16A16,16,0,0,1,16,0H126a16,16,0,0,1,0,32H86V149a16,16,0,0,1-32,0Z" transform="translate(622 338)" fill="#00a9ce"/>
    <path id="Path_2" data-name="Path 2" d="M59.468,153.083h0L.9,21.533h0A16.118,16.118,0,0,1,0,16,16,16,0,0,1,16,0c6.973,0,12.406,4.772,15.1,10.684L78.939,118.141,127.976,8h0c2.48-5.158,8.077-8,14.024-8a16,16,0,0,1,16,16,11.331,11.331,0,0,1-.8,5.011L98.164,153.48C94.7,161.4,87.255,165,79,165A22.042,22.042,0,0,1,59.468,153.083Z" transform="translate(367 338)" fill="#00a9ce"/>
    <path id="Path_1" data-name="Path 1" d="M127.976,157h0L78.939,46.859,31.1,154.314C28.309,159.633,22.974,165,16,165A16.01,16.01,0,0,1,.97,143.5h0L59.559,11.957h0a21.777,21.777,0,0,1,38.653-.428c3.088,5.46,1.043,2.112,57.747,129.644.764,1.761,2.115,5.561,2.042,7.827a16.106,16.106,0,0,1-30.024,8Z" transform="translate(212 337)" fill="#00a9ce"/>
  </g>
</svg>
