<svg version="1" xmlns="http://www.w3.org/2000/svg" width="424" height="424" viewBox="0 0 318.000000 318.000000"><path d="M141.5 1.1c-2.7.3-7.1.9-9.6 1.3-15 2.1-38.7 10.9-54.9 20.5-10.4 6.2-26.3 19.1-34.5 28-2.2 2.4-4.5 4.9-5 5.5-2.3 2.4-12.2 16.4-14.9 21-8.7 14.9-17 36.3-19.2 49.6-.3 1.4-.7 3.2-.9 4-2.6 9.3-2.6 47 0 56 .2.8.6 2.6.9 4 4.1 23.4 18.2 51.9 36 72.5s40 35.5 67.5 45.5c7.7 2.7 19.5 5.7 26 6.6 1.9.2 4.8.7 6.5 1 8.9 1.7 32.4 1.1 46.6-1.1 48.1-7.5 93.4-41.4 115.5-86.5 11.6-23.7 16.5-45.8 16-73.5-.3-19.3-2.9-33.4-9.3-51-8.4-22.9-20.8-41.9-38.4-59.1C246.4 22.7 214.7 6.7 183.5 2c-9.1-1.4-34.5-2-42-.9zm36 32.2c7.9 1.2 21.8 5.1 29.5 8.4 42.3 18 70.2 53.5 77.5 98.7 1.2 7.4 1.3 31.2.1 37.6-5.1 28.9-17.4 52.4-37.6 72-19.4 18.9-43 30.4-70.5 34.5-8.1 1.2-30.7 1.3-36 .2-1.1-.2-3.8-.8-6-1.2-2.2-.5-4.6-.9-5.2-1.1-7.9-1.6-26.2-9-34.7-14.1-33-19.7-55-52.4-61.1-90.6-1.4-8.9-1.2-31.2.3-39.7 4.7-25.7 15.7-47.5 33.6-66.9 4.6-4.8 17-15 22.9-18.8 9.8-6.2 27.6-14 36.2-16 15.6-3.4 20.8-4 34-3.7 7.7.1 15.4.5 17 .7z"/><path d="M151.7 67.4c-7.9 2.9-10.1 5.8-17.7 23.1-1 2.2-2.9 6.5-4.3 9.5s-7.1 15.8-12.7 28.5c-5.5 12.6-11 25-12.2 27.4-1.1 2.5-5.6 12.6-10 22.5-4.4 10-9.3 21-11 24.6-5.1 10.5-4.4 18.5 1.9 24.1 6.1 5.3 14.9 4.8 21-1.1 3.6-3.6 2-.1 22.3-46 8.9-20.1 17-38.3 18-40.5 8.7-19.3 11-24.7 11-25.7 0-2.6 3 3.5 13.5 27.2 5.9 13.5 11.8 26.7 13.1 29.5 1.3 2.7 7.1 15.8 12.9 29 11.4 25.9 14 29.8 20.9 31.1 11.1 2 21.3-7.5 19.2-17.9-.3-1.7-3.3-8.9-6.5-16.1-3.3-7.2-14.6-32.7-25.1-56.6-10.5-23.9-19.5-44.4-20-45.5-.5-1.1-2.7-5.8-4.8-10.5-5.7-12.4-10.8-16.8-20.6-17.6-3-.3-6.6.1-8.9 1z"/></svg>